<svg width="141" height="40" viewBox="0 0 141 40" fill="none" xmlns="http://www.w3.org/2000/svg">
<g opacity="0.8" clip-path="url(#clip0_3417_4478)">
<path d="M21.6832 9.58892H16.5763L9.76256 26.3912H14.1341L19.1331 13.4159L24.1253 26.3912H28.4969L21.6832 9.58892Z" fill="#37A134"/>
<path d="M17.2847 38.7382H17.2374C14.6739 38.4745 12.2047 37.6969 9.97173 36.4798C5.67437 34.1268 2.26752 30.124 0.783343 25.0461C-0.707578 19.9682 0.00077825 14.7619 2.34847 10.4548C3.55605 8.23704 5.20214 6.25592 7.19903 4.65344L7.2395 4.61964C7.2395 4.61964 7.2395 4.61964 7.24625 4.61287C10.2011 2.1855 13.8306 0.562736 17.7569 0.0556239C17.7771 0.0488624 17.9053 0.0353394 17.9256 0.0353394L19.5716 4.099C19.5514 4.099 19.4165 4.11252 19.3895 4.11252C15.8882 4.32889 12.6365 5.64738 10.0257 7.75697C9.98523 7.79078 9.94475 7.82459 9.90427 7.85839C9.83681 7.91249 9.76935 7.96658 9.70863 8.02067H9.70188L9.68839 8.03419C9.66815 8.04772 9.65466 8.06124 9.63442 8.07476C8.15699 9.29859 6.92918 10.7929 6.02518 12.4562C4.1902 15.8234 3.63701 19.8939 4.80411 23.8629C5.96446 27.8319 8.62248 30.9557 11.9754 32.7948C13.7496 33.7685 15.7263 34.377 17.7771 34.5663C22.2499 34.9382 26.4596 33.498 29.6843 30.8475C29.8394 30.719 29.9946 30.5906 30.143 30.4553L31.7959 34.5257C27.7953 37.5955 22.6817 39.225 17.2847 38.7382Z" fill="#37A134"/>
<path d="M59.1917 6.71503H55.9805V25.5255H59.1917V6.71503ZM63.6442 10.4744C64.8046 10.4744 65.6748 9.636 65.6748 8.44598C65.6748 7.283 64.8046 6.41753 63.6442 6.41753C62.4839 6.41753 61.5731 7.283 61.5731 8.44598C61.5731 9.636 62.4636 10.4744 63.6442 10.4744ZM65.2296 12.0837H61.9914V25.5255H65.2296V12.0837ZM74.87 9.08832C75.4636 9.08832 76.1787 9.26412 77.0153 9.636L78.0272 7.11396C76.8466 6.4919 75.6323 6.1944 74.4247 6.1944C71.2405 6.1944 69.0884 8.0741 69.0884 11.4684V12.0837H66.9634V14.8086H69.0884V25.5255H72.2996V14.8086H76.4958V12.0837H72.2996V11.5427C72.2996 9.96056 73.2104 9.08832 74.87 9.08832Z" fill="#222222"/>
<path d="M50.2258 18.791C50.2258 19.9539 49.8547 20.9208 49.1126 21.7119C48.3705 22.5098 47.2237 22.902 46.0633 22.902C44.903 22.902 43.9585 22.5098 43.2231 21.7119C42.5013 20.9276 42.137 19.9539 42.137 18.791C42.137 17.655 42.5013 16.6814 43.2231 15.897C43.9585 15.0992 44.903 14.707 46.0633 14.707C47.2237 14.707 48.3705 15.1059 49.1126 15.897C49.8547 16.6881 50.2258 17.655 50.2258 18.791ZM50.1516 13.3344C48.9507 12.2999 47.48 11.7658 45.78 11.7658C43.8775 11.7658 42.0628 12.4352 40.8012 13.7469C39.5397 15.0586 38.9258 16.7422 38.9258 18.7436C38.9258 20.7518 39.5397 22.4557 40.8012 23.8215C42.0628 25.1806 43.8505 25.85 45.78 25.85C47.534 25.85 48.8293 25.3429 50.1516 24.2881V25.5254H53.2144V12.0836H50.1516V13.3344Z" fill="#222222"/>
<path d="M98.1849 11.942C96.1138 11.942 94.2586 12.9292 93.3681 14.4167C92.6057 12.8548 90.9732 11.942 89.1719 11.942C87.4179 11.942 85.9877 12.8345 85.1984 14.2409V12.2868H83.0463V25.5326H85.2456V18.1017C85.2456 15.627 86.7298 13.9975 88.8751 13.9975C90.9259 13.9975 92.1605 15.5053 92.1605 18.0544V25.5326H94.3598V18.0544C94.3598 15.6541 95.817 13.9975 97.9623 13.9975C99.9659 13.9975 101.221 15.4309 101.221 18.0071V25.5326H103.42V17.6825C103.42 15.9245 102.954 14.5384 102.017 13.5039C101.079 12.4626 99.7905 11.942 98.1849 11.942ZM105.626 18.8996C105.626 20.8537 106.274 22.5102 107.582 23.849C108.891 25.181 110.544 25.8504 112.541 25.8504C114.545 25.8504 116.197 25.181 117.506 23.849C118.815 22.5102 119.456 20.8537 119.456 18.8996C119.456 16.9658 118.795 15.3295 117.486 13.9975C116.177 12.6317 114.545 11.969 112.541 11.969C110.544 11.969 108.891 12.6317 107.582 13.9975C106.274 15.3295 105.626 16.9658 105.626 18.8996ZM117.236 18.8996C117.236 20.2586 116.791 21.4216 115.88 22.3885C114.963 23.3486 113.85 23.8219 112.541 23.8219C111.232 23.8219 110.126 23.3486 109.208 22.3885C108.298 21.4216 107.852 20.2586 107.852 18.8996C107.852 17.5608 108.298 16.4181 109.208 15.458C110.126 14.4911 111.232 13.9975 112.541 13.9975C113.85 13.9975 114.963 14.4911 115.88 15.458C116.791 16.4181 117.236 17.5608 117.236 18.8996ZM128.61 11.969C126.654 11.969 125.075 12.7601 123.868 14.3153V6.79649H121.669V25.5326H123.868V23.5718C125.048 25.0863 126.634 25.8504 128.584 25.8504C130.486 25.8504 132.044 25.1878 133.299 23.849C134.567 22.4899 135.202 20.8537 135.202 18.9199C135.202 16.9928 134.561 15.3566 133.299 13.9975C132.038 12.6317 130.486 11.969 128.61 11.969ZM128.361 23.7746C126.978 23.7746 125.865 23.3013 125.028 22.3615C124.185 21.4216 123.767 20.2586 123.767 18.8996C123.767 17.5338 124.185 16.3978 125.028 15.458C125.865 14.5181 126.978 14.0448 128.361 14.0448C129.717 14.0448 130.817 14.5249 131.667 15.458C132.523 16.3843 132.955 17.5338 132.955 18.8996C132.955 20.2586 132.53 21.4149 131.667 22.3615C130.823 23.2946 129.717 23.7746 128.361 23.7746ZM138.716 10.3598C139.607 10.3598 140.322 9.64308 140.322 8.72352C140.322 7.81072 139.607 7.11428 138.716 7.11428C137.752 7.11428 137.064 7.81072 137.064 8.72352C137.064 9.64308 137.752 10.3598 138.716 10.3598ZM139.782 12.2868H137.583V25.5326H139.782V12.2868Z" fill="#222222"/>
</g>
<defs>
<clipPath id="clip0_3417_4478">
<rect width="140.952" height="40" fill="white"/>
</clipPath>
</defs>
</svg>
